<?xml version="1.0" encoding="UTF-8" standalone="no" ?>
<!DOCTYPE svg PUBLIC "-//W3C//DTD SVG 1.1//EN" "http://www.w3.org/Graphics/SVG/1.1/DTD/svg11.dtd">
<svg xmlns="http://www.w3.org/2000/svg" xmlns:xlink="http://www.w3.org/1999/xlink" version="1.1" width="640" height="480" viewBox="0 0 640 480" xml:space="preserve">
<desc>Created with Fabric.js 3.6.6</desc>
<defs>
</defs>
<g transform="matrix(3.03 0 0 2.16 294.5 236)"  >
<polygon style="stroke: rgb(0,0,0); stroke-width: 0; stroke-dasharray: none; stroke-linecap: butt; stroke-dashoffset: 0; stroke-linejoin: miter; stroke-miterlimit: 4; fill: rgb(62,129,181); fill-rule: nonzero; opacity: 1;"  points="-50,-50 -50,50 50,50 50,-50 " />
</g>
<g transform="matrix(0.49 0 0 0.49 193.32 176.32)"  >
<path style="stroke: rgb(0,0,0); stroke-width: 0; stroke-dasharray: none; stroke-linecap: butt; stroke-dashoffset: 0; stroke-linejoin: miter; stroke-miterlimit: 10; fill: rgb(255,255,0); fill-rule: evenodd; opacity: 1;"  transform=" translate(-59.83, -59.83)" d="m 0 59.82677 l 27.527777 -8.654488 l -19.512508 -21.258898 l 28.167 6.268881 l -6.268881 -28.167 l 21.258898 19.512508 l 8.654488 -27.527777 l 8.654491 27.527777 l 21.258896 -19.512508 l -6.2688828 28.167 l 28.167 -6.268881 l -19.512512 21.258898 l 27.527779 8.654488 l -27.527779 8.654491 l 19.512512 21.258896 l -28.167 -6.2688828 l 6.2688828 28.167 l -21.258896 -19.512512 l -8.654491 27.527779 l -8.654488 -27.527779 l -21.258898 19.512512 l 6.268881 -28.167 l -28.167 6.2688828 l 19.512508 -21.258896 z" stroke-linecap="round" />
</g>
<g transform="matrix(1 0 0 1 186.5 343)"  >
<line style="stroke: rgb(0,0,0); stroke-width: 2; stroke-dasharray: none; stroke-linecap: butt; stroke-dashoffset: 0; stroke-linejoin: miter; stroke-miterlimit: 4; fill: rgb(0,0,0); fill-rule: nonzero; opacity: 1;"  x1="0" y1="0" x2="0" y2="0" />
</g>
<g transform="matrix(1.18 0 0 1.18 279 293.15)"  >
<polygon style="stroke: rgb(0,0,0); stroke-width: 0; stroke-dasharray: none; stroke-linecap: butt; stroke-dashoffset: 0; stroke-linejoin: miter; stroke-miterlimit: 4; fill: rgb(0,255,45); fill-rule: nonzero; opacity: 1;"  points="0,-42.5 50,42.5 -50,42.5 " />
</g>
<g transform="matrix(1.32 0 0 1.78 358.25 267.65)"  >
<polygon style="stroke: rgb(0,0,0); stroke-width: 0; stroke-dasharray: none; stroke-linecap: butt; stroke-dashoffset: 0; stroke-linejoin: miter; stroke-miterlimit: 4; fill: rgb(0,255,45); fill-rule: nonzero; opacity: 1;"  points="0,-42.5 50,42.5 -50,42.5 " />
</g>
</svg>